# xmcd
#
# Track frame offsets:
#	150
#	12987
#	30584
#	47118
#	63967
#	78501
#	92172
#	106309
#	117367
#	132494
#	151609
#	167843
#	183862
#	196856
#	219546
#	227672
#	239742
#
# Disc length: 3370 seconds
#
# Revision: 1
# Processed by: cddbd v1.5.2PL0 Copyright (c) Steve Scherf et al.
# Submitted via: audiograbber 1.83.01
#
DISCID=df0d2811
DTITLE=Boogie Woogie - Shift it up
DYEAR=2003
DGENRE=
TTITLE0=Hit'em
TTITLE1=Steppin' in
TTITLE2=Railroad Jive
TTITLE3=Sweet eyes
TTITLE4=Lazy Train
TTITLE5=My Style
TTITLE6=Blues for my friends
TTITLE7=Lonesome
TTITLE8=TC Boogie
TTITLE9=Pinetop's Boogie Woogie
TTITLE10=Old Smokey
TTITLE11=Boogie Woogie Dream
TTITLE12=You never can tell
TTITLE13=Blues@2
TTITLE14=Heat it up
TTITLE15=Foot Pedal Boogie
TTITLE16=Shift it up
EXTD=Produced by Dennis Koeckstadt and Stefan Ulbricht
EXTT0=Koeckstadt/Ulbricht
EXTT1=Koeckstadt/Ulbricht
EXTT2=Koeckstadt/Ulbricht
EXTT3=Koeckstadt/Ulbricht
EXTT4=Koeckstadt/Ulbricht
EXTT5=Koeckstadt
EXTT6=Koeckstadt
EXTT7=Koeckstadt
EXTT8=Koeckstadt
EXTT9=Smith arr. Ulbricht
EXTT10=Ulbricht
EXTT11=Ammons/Johnson arr. Ulbricht
EXTT12=Berry arr. Ulbricht
EXTT13=Koeckstadt/Ulbricht
EXTT14=Trauner/Zwingenberger
EXTT15=Ammons/Johnson
EXTT16=Koeckstadt/Ulbricht
PLAYORDER=
